<?xml version="1.0" encoding="UTF-8" standalone="no"?>
<svg
   viewBox="0 0 357 799"
   version="1.1"
   id="svg17"
   sodipodi:docname="gargajos-03.svg"
   inkscape:version="1.2.1 (9c6d41e410, 2022-07-14)"
   xmlns:inkscape="http://www.inkscape.org/namespaces/inkscape"
   xmlns:sodipodi="http://sodipodi.sourceforge.net/DTD/sodipodi-0.dtd"
   xmlns="http://www.w3.org/2000/svg"
   xmlns:svg="http://www.w3.org/2000/svg">
  <sodipodi:namedview
     id="namedview19"
     pagecolor="#ffffff"
     bordercolor="#000000"
     borderopacity="0.25"
     inkscape:showpageshadow="2"
     inkscape:pageopacity="0.0"
     inkscape:pagecheckerboard="0"
     inkscape:deskcolor="#d1d1d1"
     showgrid="false"
     inkscape:zoom="0.79295078"
     inkscape:cx="312.1253"
     inkscape:cy="363.8309"
     inkscape:window-width="1920"
     inkscape:window-height="1041"
     inkscape:window-x="0"
     inkscape:window-y="511"
     inkscape:window-maximized="1"
     inkscape:current-layer="gargajo_elementos" />
  <defs
     id="defs4">
    <style
       id="style2">.cls-1{opacity:0.92;}</style>
  </defs>
  <g
     id="gargajo_elementos"
     data-name="gargajo elementos">
    <path
       d="m 256.68,144 c 8.84,6 20.59,-1 28.42,-8.26 7.83,-7.26 17.55,-15.83 27.76,-12.63 8.48,2.66 12.54,12.46 13.25,21.32 0.71,8.86 -0.78,18 1.56,26.55 1.84936,6.38659 5.91645,11.90394 11.47,15.56 10.92,7.49 0.67,411.66 0,411.78 -7.16,1.34 -12.44,8.12 -16.71,14.32 l -15.7,22.79 c -5.17,7.5 -10.47,17.34 -5.71,25.12 4.24,6.94 14.32,8 19.37,14.39 4.86,6.15 2.71,16.5 -4.2,20.21 -6.91,3.71 -16.72,-0.24 -19.14,-7.69 -1.28,-3.91 -0.7,-8.18 -1.36,-12.24 -2.45,-15.08 -25.19,-21.59 -35.25,-10.1 -3.14,3.6 -4.91,8.16 -6.48,12.67 -6.23461,17.88985 -10.3036,36.46217 -12.12,55.32 -0.44,4.6 -0.8,9.39 -3.13,13.38 -5.63,9.67 -19.21,10 -30.37,9.21 -2.79,-14.22 8.11,-27 16.78,-38.58 8.67,-11.58 15.47,-28.81 5.79,-39.59 -11.07,-12.35 -33.09,-4.41 -46.68,-13.91 -10.08,-7 -13.66,-22.49 -25.51,-25.75 -9.1,-2.5 -18.37,3.94 -24,11.51 -5.63,7.57 -9.3,16.65 -16,23.29 -6.7,6.64 -18.35,10 -25.43,3.73 -9.47,-8.35 -2.13,-24.6 8.33,-31.68 10.46,-7.08 23.86,-10.66 31.17,-21 10.66,-15.06 2,-37.43 -13.13,-48 -6.13,-4.28 -13.92,-7.3 -21,-5 -12.34,4 -21.33,22.52 -32.85,16.58 -5.09,-7.88 0.48,-18.72 8.18,-24.08 7.7,-5.36 17.23,-7.59 25,-12.87 7.77,-5.28 13.54,-15.93 8.71,-24 -6.36,-10.59 -22.35,-6.31 -33.74,-1.53 C 62.57,529.6 45.11,530.9 42,519 c -2.81,-10.7 10.78,-18.91 21.81,-18.08 11.03,0.83 21.59,6.4 32.6,5.37 13.26,-1.24 24.08,-12.19 28.76,-24.65 4.68,-12.46 4.28,-26.23 3,-39.48 -0.63,-6.34 -1.54,-12.9 -5,-18.25 -7,-10.79 -21.52,-13.11 -34.3,-14.4 -3.86,-5 -0.89,-12.44 3.71,-16.7 4.6,-4.26 10.63,-6.88 14.77,-11.59 10.52,-12 0.37,-34.62 -15.57,-34.74 C 79.12,346.35 63,356 56.27,345.33 c -4.19,-6.67 1.17,-15.88 8.39,-19 7.22,-3.12 15.44,-2.25 23.34,-2.33 7.9,-0.08 16.61,-1.56 21.39,-7.81 7.12,-9.31 0.44,-24 -10.2,-28.86 -10.64,-4.86 -23.11,-2.76 -34.42,0.33 -7.62,2.08 -15.38,4.58 -23.24,3.85 -7.86,-0.73 -16,-5.7 -17.55,-13.45 -2,-10 8.2,-19.12 18.39,-20.11 10.19,-0.99 20,3.52 29.43,7.52 9.43,4 19.86,7.64 29.72,4.88 15.76,-4.35 22.79,-22.65 25.48,-38.81 2.69,-16.16 4,-34.15 15.74,-45.61 6.44,-6.3 15.24,-9.69 21.86,-15.8 6.62,-6.11 10.39,-17.34 4.2,-23.89 -3.05,-3.24 -7.9,-4.58 -10.34,-8.3 -2.58,-3.93 -1.56,-9.34 1,-13.28 7.79,-12 29.16,-10.48 35.16,2.52 1.5,3.25 2.15,6.92 4.28,9.8 7.44,10.05 24.93,0.53 27,-11.79 2.07,-12.32 -4.33,-24.28 -7.39,-36.41 -3.06,-12.13 -0.62,-28.2 11.28,-32.06 12.79,-4.14 24.91,10.28 25.34,23.74 0.43,13.46 -6.12,26 -9.17,39 -2.34,10.07 1.51,24.79 11.77,23.52 z"
       id="path6"
       style="display:inline;opacity:0.92"
       sodipodi:nodetypes="cscscccccccscccccccscccsscsccccsscscscscccscccsscscsssscscscccscsscsccc" />
  </g>
</svg>
